<svg width="192" height="192" viewBox="0 0 192 192" fill="none" xmlns="http://www.w3.org/2000/svg">
<path d="M96 52C87.2976 52 78.7907 54.5806 71.5549 59.4153C64.3191 64.2501 58.6796 71.122 55.3493 79.1619C52.019 87.2019 51.1477 96.0488 52.8455 104.584C54.5432 113.119 58.7338 120.959 64.8873 127.113C71.0408 133.266 78.8809 137.457 87.416 139.155C95.9512 140.852 104.798 139.981 112.838 136.651C120.878 133.32 127.75 127.681 132.585 120.445C137.419 113.209 140 104.702 140 96C139.987 84.3345 135.347 73.1506 127.098 64.9019C118.849 56.6531 107.665 52.0132 96 52ZM96 132C88.8799 132 81.9196 129.889 75.9995 125.933C70.0793 121.977 65.4651 116.355 62.7403 109.777C60.0156 103.198 59.3027 95.9601 60.6917 88.9767C62.0808 81.9934 65.5095 75.5788 70.5442 70.5442C75.5788 65.5095 81.9934 62.0808 88.9767 60.6917C95.9601 59.3027 103.198 60.0156 109.777 62.7403C116.355 65.4651 121.977 70.0793 125.933 75.9995C129.889 81.9196 132 88.8799 132 96C131.989 105.544 128.193 114.695 121.444 121.444C114.695 128.193 105.544 131.989 96 132ZM140 0H52C38.2135 0.0156158 24.9962 5.49919 15.2477 15.2477C5.49919 24.9962 0.0156158 38.2135 0 52V140C0.0156158 153.786 5.49919 167.004 15.2477 176.752C24.9962 186.501 38.2135 191.984 52 192H140C153.786 191.984 167.004 186.501 176.752 176.752C186.501 167.004 191.984 153.786 192 140V52C191.984 38.2135 186.501 24.9962 176.752 15.2477C167.004 5.49919 153.786 0.0156158 140 0ZM184 140C183.987 151.665 179.347 162.849 171.098 171.098C162.849 179.347 151.665 183.987 140 184H52C40.3345 183.987 29.1506 179.347 20.9019 171.098C12.6531 162.849 8.01318 151.665 8 140V52C8.01318 40.3345 12.6531 29.1506 20.9019 20.9019C29.1506 12.6531 40.3345 8.01318 52 8H140C151.665 8.01318 162.849 12.6531 171.098 20.9019C179.347 29.1506 183.987 40.3345 184 52V140ZM156 44C156 45.5823 155.531 47.129 154.652 48.4446C153.773 49.7602 152.523 50.7855 151.061 51.391C149.6 51.9965 147.991 52.155 146.439 51.8463C144.887 51.5376 143.462 50.7757 142.343 49.6569C141.224 48.538 140.462 47.1126 140.154 45.5607C139.845 44.0089 140.003 42.4003 140.609 40.9385C141.214 39.4767 142.24 38.2273 143.555 37.3482C144.871 36.4692 146.418 36 148 36C150.121 36.0024 152.154 36.8461 153.654 38.3458C155.154 39.8456 155.998 41.879 156 44Z" fill="white"/>
</svg>
